<svg xmlns="http://www.w3.org/2000/svg" xmlns:xlink="http://www.w3.org/1999/xlink" width="500" zoomAndPan="magnify" viewBox="0 0 375 374.999991" height="500" preserveAspectRatio="xMidYMid meet" version="1.0"><defs><g/><clipPath id="56fc091005"><path d="M 119 83.554688 L 260.996094 83.554688 L 260.996094 225 L 119 225 Z M 119 83.554688 " clip-rule="nonzero"/></clipPath><clipPath id="ce2b10dab3"><path d="M 232 122 L 260.996094 122 L 260.996094 175 L 232 175 Z M 232 122 " clip-rule="nonzero"/></clipPath></defs><rect x="-37.5" width="450" fill="#ffffff" y="-37.499999" height="449.999989" fill-opacity="1"/><rect x="-37.5" width="450" fill="#f0f3ff" y="-37.499999" height="449.999989" fill-opacity="1"/><g clip-path="url(#56fc091005)"><path fill="#ff5757" d="M 190.253906 83.554688 C 189.097656 83.554688 187.941406 83.582031 186.785156 83.640625 C 185.628906 83.695312 184.476562 83.78125 183.324219 83.894531 C 182.171875 84.007812 181.023438 84.148438 179.878906 84.320312 C 178.734375 84.488281 177.59375 84.6875 176.460938 84.914062 C 175.324219 85.136719 174.195312 85.390625 173.074219 85.671875 C 171.953125 85.953125 170.835938 86.261719 169.730469 86.597656 C 168.621094 86.933594 167.523438 87.296875 166.433594 87.6875 C 165.34375 88.074219 164.265625 88.492188 163.195312 88.933594 C 162.125 89.378906 161.070312 89.847656 160.023438 90.339844 C 158.976562 90.835938 157.941406 91.355469 156.921875 91.902344 C 155.902344 92.445312 154.894531 93.015625 153.902344 93.613281 C 152.910156 94.207031 151.933594 94.824219 150.96875 95.46875 C 150.007812 96.109375 149.0625 96.777344 148.132812 97.464844 C 147.203125 98.15625 146.292969 98.867188 145.398438 99.601562 C 144.5 100.335938 143.625 101.089844 142.769531 101.867188 C 141.910156 102.644531 141.074219 103.441406 140.253906 104.261719 C 139.4375 105.078125 138.636719 105.917969 137.863281 106.773438 C 137.085938 107.632812 136.328125 108.507812 135.59375 109.402344 C 134.859375 110.296875 134.148438 111.207031 133.457031 112.136719 C 132.769531 113.066406 132.101562 114.011719 131.460938 114.976562 C 130.816406 115.9375 130.199219 116.914062 129.601562 117.90625 C 129.007812 118.898438 128.4375 119.90625 127.894531 120.925781 C 127.347656 121.949219 126.828125 122.980469 126.332031 124.027344 C 125.835938 125.074219 125.367188 126.132812 124.925781 127.199219 C 124.484375 128.269531 124.066406 129.347656 123.675781 130.4375 C 123.285156 131.527344 122.921875 132.625 122.585938 133.734375 C 122.25 134.839844 121.941406 135.957031 121.660156 137.078125 C 121.378906 138.199219 121.125 139.328125 120.902344 140.464844 C 120.675781 141.597656 120.476562 142.738281 120.308594 143.882812 C 120.136719 145.027344 119.996094 146.175781 119.882812 147.328125 C 119.769531 148.480469 119.683594 149.632812 119.625 150.789062 C 119.570312 151.945312 119.542969 153.101562 119.542969 154.257812 C 119.542969 155.417969 119.570312 156.574219 119.625 157.726562 C 119.683594 158.882812 119.769531 160.039062 119.882812 161.191406 C 119.996094 162.339844 120.136719 163.488281 120.304688 164.632812 C 120.476562 165.777344 120.671875 166.917969 120.898438 168.054688 C 121.125 169.1875 121.378906 170.316406 121.660156 171.441406 C 121.941406 172.5625 122.25 173.675781 122.585938 174.785156 C 122.921875 175.890625 123.285156 176.992188 123.671875 178.082031 C 124.0625 179.171875 124.480469 180.25 124.921875 181.320312 C 125.367188 182.386719 125.835938 183.445312 126.328125 184.492188 C 126.824219 185.539062 127.34375 186.570312 127.890625 187.589844 C 128.433594 188.613281 129.003906 189.617188 129.601562 190.609375 C 130.195312 191.605469 130.8125 192.582031 131.457031 193.542969 C 132.097656 194.503906 132.765625 195.453125 133.453125 196.382812 C 134.144531 197.308594 134.855469 198.222656 135.589844 199.117188 C 136.324219 200.011719 137.078125 200.886719 137.855469 201.746094 C 138.632812 202.601562 139.429688 203.441406 140.25 204.257812 C 141.066406 205.078125 141.90625 205.875 142.761719 206.652344 C 143.621094 207.429688 144.496094 208.183594 145.390625 208.917969 C 146.285156 209.652344 147.195312 210.363281 148.125 211.054688 C 149.054688 211.742188 150 212.410156 150.964844 213.054688 C 151.925781 213.695312 152.902344 214.316406 153.894531 214.910156 C 154.890625 215.503906 155.894531 216.074219 156.914062 216.621094 C 157.9375 217.164062 158.96875 217.6875 160.015625 218.179688 C 161.0625 218.675781 162.121094 219.144531 163.1875 219.585938 C 164.257812 220.03125 165.335938 220.445312 166.425781 220.835938 C 167.515625 221.226562 168.613281 221.589844 169.722656 221.925781 C 170.828125 222.261719 171.945312 222.570312 173.066406 222.851562 C 174.1875 223.132812 175.316406 223.386719 176.453125 223.613281 C 177.589844 223.835938 178.726562 224.035156 179.871094 224.207031 C 181.015625 224.375 182.164062 224.515625 183.316406 224.628906 C 184.46875 224.742188 185.621094 224.828125 186.777344 224.886719 C 187.933594 224.941406 189.089844 224.96875 190.246094 224.96875 C 191.40625 224.972656 192.5625 224.941406 193.71875 224.886719 C 194.871094 224.828125 196.027344 224.742188 197.179688 224.628906 C 198.328125 224.515625 199.476562 224.375 200.621094 224.207031 C 201.765625 224.035156 202.90625 223.839844 204.042969 223.613281 C 205.175781 223.386719 206.304688 223.132812 207.429688 222.851562 C 208.550781 222.570312 209.667969 222.261719 210.773438 221.925781 C 211.882812 221.589844 212.980469 221.226562 214.070312 220.835938 C 215.160156 220.449219 216.238281 220.03125 217.308594 219.589844 C 218.375 219.144531 219.433594 218.675781 220.480469 218.183594 C 221.527344 217.6875 222.558594 217.167969 223.578125 216.621094 C 224.601562 216.078125 225.605469 215.507812 226.601562 214.910156 C 227.59375 214.316406 228.570312 213.699219 229.53125 213.054688 C 230.492188 212.410156 231.441406 211.746094 232.371094 211.054688 C 233.296875 210.367188 234.210938 209.65625 235.105469 208.921875 C 236 208.1875 236.875 207.433594 237.734375 206.65625 C 238.589844 205.878906 239.429688 205.078125 240.246094 204.261719 C 241.066406 203.441406 241.863281 202.605469 242.640625 201.746094 C 243.417969 200.890625 244.171875 200.015625 244.90625 199.121094 C 245.640625 198.226562 246.351562 197.3125 247.042969 196.382812 C 247.730469 195.453125 248.398438 194.507812 249.039062 193.546875 C 249.683594 192.585938 250.300781 191.605469 250.898438 190.613281 C 251.492188 189.621094 252.0625 188.617188 252.609375 187.59375 C 253.152344 186.574219 253.671875 185.539062 254.167969 184.496094 C 254.664062 183.449219 255.132812 182.390625 255.574219 181.320312 C 256.019531 180.253906 256.433594 179.171875 256.824219 178.082031 C 257.214844 176.996094 257.578125 175.894531 257.914062 174.789062 C 258.25 173.679688 258.558594 172.566406 258.839844 171.445312 C 259.121094 170.320312 259.375 169.191406 259.597656 168.058594 C 259.824219 166.921875 260.023438 165.78125 260.191406 164.636719 C 260.363281 163.492188 260.503906 162.34375 260.617188 161.195312 C 260.730469 160.042969 260.816406 158.886719 260.871094 157.730469 C 260.929688 156.578125 260.957031 155.417969 260.957031 154.261719 C 260.957031 153.105469 260.929688 151.949219 260.871094 150.792969 C 260.816406 149.636719 260.730469 148.484375 260.617188 147.332031 C 260.503906 146.179688 260.363281 145.03125 260.191406 143.886719 C 260.023438 142.742188 259.824219 141.601562 259.601562 140.46875 C 259.375 139.332031 259.121094 138.203125 258.839844 137.082031 C 258.558594 135.960938 258.25 134.84375 257.914062 133.738281 C 257.578125 132.628906 257.214844 131.53125 256.824219 130.441406 C 256.4375 129.351562 256.019531 128.273438 255.578125 127.203125 C 255.132812 126.136719 254.664062 125.078125 254.171875 124.03125 C 253.675781 122.984375 253.15625 121.953125 252.609375 120.929688 C 252.066406 119.910156 251.496094 118.90625 250.902344 117.910156 C 250.304688 116.917969 249.6875 115.941406 249.042969 114.980469 C 248.402344 114.019531 247.734375 113.070312 247.046875 112.140625 C 246.355469 111.214844 245.644531 110.300781 244.910156 109.40625 C 244.175781 108.511719 243.421875 107.636719 242.644531 106.777344 C 241.867188 105.921875 241.070312 105.082031 240.25 104.265625 C 239.433594 103.445312 238.59375 102.648438 237.738281 101.871094 C 236.878906 101.09375 236.003906 100.339844 235.109375 99.605469 C 234.214844 98.871094 233.304688 98.160156 232.375 97.46875 C 231.445312 96.78125 230.5 96.113281 229.535156 95.472656 C 228.574219 94.828125 227.597656 94.210938 226.605469 93.613281 C 225.613281 93.019531 224.605469 92.449219 223.585938 91.902344 C 222.566406 91.359375 221.53125 90.839844 220.484375 90.34375 C 219.441406 89.847656 218.382812 89.378906 217.3125 88.9375 C 216.242188 88.496094 215.164062 88.078125 214.074219 87.6875 C 212.984375 87.296875 211.886719 86.933594 210.78125 86.597656 C 209.671875 86.261719 208.558594 85.953125 207.433594 85.671875 C 206.3125 85.394531 205.183594 85.140625 204.050781 84.914062 C 202.914062 84.6875 201.773438 84.488281 200.628906 84.320312 C 199.484375 84.148438 198.335938 84.007812 197.183594 83.894531 C 196.035156 83.78125 194.878906 83.695312 193.722656 83.640625 C 192.570312 83.582031 191.414062 83.554688 190.253906 83.554688 Z M 190.253906 83.554688 " fill-opacity="1" fill-rule="nonzero"/></g><path fill="#ffffff" d="M 229.746094 136.816406 L 228.460938 137.050781 C 224.882812 137.707031 221.398438 137.382812 218 136.082031 L 197.476562 128.164062 C 196.550781 127.808594 195.59375 127.574219 194.609375 127.460938 C 193.621094 127.347656 192.636719 127.359375 191.652344 127.496094 C 190.671875 127.632812 189.71875 127.890625 188.804688 128.269531 C 187.886719 128.648438 187.03125 129.132812 186.234375 129.730469 L 167.398438 143.855469 C 167.226562 143.984375 167.09375 144.144531 167 144.335938 C 166.902344 144.527344 166.855469 144.730469 166.855469 144.941406 C 166.855469 145.15625 166.902344 145.359375 167 145.546875 C 167.09375 145.738281 167.226562 145.898438 167.398438 146.027344 C 167.824219 146.34375 168.273438 146.625 168.742188 146.871094 C 169.214844 147.117188 169.699219 147.324219 170.203125 147.488281 C 170.707031 147.65625 171.222656 147.78125 171.746094 147.867188 C 172.269531 147.953125 172.796875 147.996094 173.328125 147.996094 C 173.859375 147.996094 174.386719 147.953125 174.910156 147.867188 C 175.4375 147.78125 175.949219 147.65625 176.453125 147.488281 C 176.957031 147.324219 177.445312 147.117188 177.917969 146.871094 C 178.386719 146.625 178.835938 146.34375 179.261719 146.027344 L 186.96875 140.246094 C 187.433594 139.902344 187.917969 139.59375 188.429688 139.328125 C 188.941406 139.0625 189.472656 138.835938 190.019531 138.65625 C 190.566406 138.472656 191.128906 138.335938 191.695312 138.246094 C 192.265625 138.152344 192.839844 138.105469 193.417969 138.105469 C 193.996094 138.105469 194.566406 138.152344 195.136719 138.246094 C 195.707031 138.335938 196.265625 138.472656 196.8125 138.65625 C 197.363281 138.835938 197.890625 139.0625 198.402344 139.328125 C 198.914062 139.59375 199.402344 139.902344 199.863281 140.246094 L 227.191406 160.871094 C 228.054688 161.503906 228.769531 162.273438 229.332031 163.179688 C 229.898438 164.085938 230.273438 165.066406 230.457031 166.121094 L 230.457031 166.175781 C 230.492188 166.375 230.558594 166.558594 230.660156 166.734375 C 230.761719 166.90625 230.886719 167.058594 231.042969 167.183594 C 231.195312 167.3125 231.367188 167.410156 231.554688 167.476562 C 231.746094 167.542969 231.941406 167.574219 232.140625 167.574219 L 237.28125 167.574219 Z M 229.746094 136.816406 " fill-opacity="1" fill-rule="nonzero"/><path fill="#ffffff" d="M 226.597656 166.972656 C 226.519531 166.386719 226.328125 165.84375 226.027344 165.335938 C 225.726562 164.828125 225.335938 164.402344 224.859375 164.058594 L 197.476562 143.4375 C 196.890625 142.996094 196.25 142.660156 195.554688 142.425781 C 194.859375 142.195312 194.144531 142.078125 193.410156 142.078125 C 192.679688 142.078125 191.964844 142.195312 191.269531 142.425781 C 190.574219 142.660156 189.933594 142.996094 189.347656 143.4375 L 181.644531 149.21875 C 181.046875 149.660156 180.417969 150.054688 179.757812 150.398438 C 179.097656 150.746094 178.414062 151.035156 177.710938 151.269531 C 177.003906 151.503906 176.28125 151.679688 175.546875 151.796875 C 174.8125 151.914062 174.074219 151.976562 173.328125 151.976562 C 172.585938 151.976562 171.84375 151.914062 171.109375 151.796875 C 170.375 151.679688 169.65625 151.503906 168.949219 151.269531 C 168.242188 151.035156 167.558594 150.746094 166.898438 150.398438 C 166.238281 150.054688 165.613281 149.660156 165.015625 149.21875 C 164.320312 148.699219 163.785156 148.050781 163.410156 147.265625 C 163.035156 146.484375 162.863281 145.660156 162.894531 144.792969 C 162.9375 143.957031 163.160156 143.167969 163.5625 142.429688 C 163.960938 141.695312 164.503906 141.078125 165.183594 140.589844 L 178.414062 130.613281 C 178.546875 130.542969 178.660156 130.453125 178.753906 130.335938 C 178.851562 130.222656 178.917969 130.089844 178.960938 129.949219 C 179.007812 129.804688 179.019531 129.660156 179.007812 129.511719 C 178.992188 129.363281 178.949219 129.222656 178.878906 129.089844 C 178.808594 128.957031 178.714844 128.84375 178.601562 128.75 C 178.484375 128.65625 178.355469 128.585938 178.214844 128.542969 C 178.070312 128.496094 177.925781 128.484375 177.777344 128.496094 C 177.628906 128.511719 177.488281 128.554688 177.355469 128.625 L 155.550781 136.253906 C 153.960938 136.808594 152.324219 137.152344 150.644531 137.28125 L 143.21875 167.554688 L 147.140625 167.554688 C 148.464844 167.554688 148.929688 167.769531 149.316406 168.300781 C 150.425781 169.84375 151.621094 171.3125 152.902344 172.710938 C 154.1875 174.109375 155.546875 175.429688 156.988281 176.667969 C 158.425781 177.90625 159.933594 179.054688 161.507812 180.117188 C 163.082031 181.175781 164.714844 182.140625 166.402344 183.003906 C 168.089844 183.871094 169.824219 184.636719 171.605469 185.296875 C 173.382812 185.960938 175.195312 186.515625 177.039062 186.960938 C 178.886719 187.410156 180.75 187.746094 182.636719 187.972656 C 184.519531 188.199219 186.410156 188.3125 188.308594 188.316406 L 188.4375 188.316406 C 188.734375 188.320312 189.019531 188.277344 189.300781 188.1875 C 189.582031 188.097656 189.839844 187.964844 190.078125 187.789062 C 190.316406 187.617188 190.523438 187.410156 190.691406 187.171875 C 190.863281 186.929688 190.992188 186.667969 191.078125 186.386719 C 191.28125 185.828125 191.304688 185.257812 191.144531 184.683594 C 190.984375 184.109375 190.671875 183.636719 190.210938 183.257812 L 186.261719 180.292969 C 186.050781 180.140625 185.871094 179.957031 185.730469 179.738281 C 185.585938 179.519531 185.488281 179.285156 185.4375 179.027344 C 185.386719 178.773438 185.382812 178.515625 185.429688 178.257812 C 185.472656 178.003906 185.566406 177.761719 185.703125 177.539062 C 185.855469 177.316406 186.042969 177.128906 186.273438 176.980469 C 186.5 176.832031 186.75 176.734375 187.019531 176.691406 C 187.285156 176.644531 187.550781 176.652344 187.816406 176.71875 C 188.082031 176.78125 188.320312 176.894531 188.539062 177.058594 L 192.464844 180 L 192.65625 180.148438 L 199.316406 185.160156 C 199.664062 185.421875 200.046875 185.621094 200.460938 185.761719 C 200.875 185.898438 201.300781 185.96875 201.738281 185.96875 C 202.171875 185.96875 202.597656 185.898438 203.011719 185.757812 C 203.429688 185.621094 203.808594 185.421875 204.160156 185.160156 C 204.9375 184.597656 205.4375 183.847656 205.667969 182.917969 C 205.769531 182.53125 205.816406 182.136719 205.804688 181.738281 C 205.789062 181.339844 205.71875 180.949219 205.589844 180.574219 C 205.460938 180.195312 205.277344 179.84375 205.042969 179.519531 C 204.808594 179.195312 204.535156 178.914062 204.214844 178.671875 L 196.199219 172.695312 C 196.007812 172.558594 195.847656 172.394531 195.714844 172.199219 C 195.585938 172.007812 195.488281 171.796875 195.429688 171.570312 C 195.367188 171.34375 195.347656 171.117188 195.367188 170.882812 C 195.386719 170.648438 195.445312 170.425781 195.542969 170.214844 C 195.667969 169.945312 195.847656 169.714844 196.078125 169.527344 C 196.3125 169.339844 196.570312 169.210938 196.859375 169.140625 C 197.148438 169.070312 197.441406 169.0625 197.730469 169.125 C 198.023438 169.183594 198.289062 169.304688 198.523438 169.484375 L 206.570312 175.539062 L 206.609375 175.539062 L 211.09375 178.902344 C 211.433594 179.167969 211.808594 179.375 212.210938 179.527344 C 212.617188 179.675781 213.035156 179.761719 213.464844 179.78125 C 213.898438 179.804688 214.320312 179.757812 214.738281 179.648438 C 215.15625 179.535156 215.546875 179.363281 215.910156 179.132812 C 216.175781 178.953125 216.417969 178.746094 216.636719 178.511719 C 216.855469 178.273438 217.042969 178.015625 217.199219 177.734375 C 217.355469 177.453125 217.476562 177.15625 217.5625 176.847656 C 217.648438 176.539062 217.695312 176.222656 217.707031 175.902344 C 217.71875 175.582031 217.691406 175.261719 217.625 174.949219 C 217.5625 174.632812 217.460938 174.332031 217.324219 174.039062 C 217.1875 173.75 217.019531 173.476562 216.816406 173.226562 C 216.617188 172.976562 216.386719 172.753906 216.132812 172.554688 L 206.015625 164.9375 C 205.824219 164.800781 205.664062 164.636719 205.53125 164.441406 C 205.398438 164.25 205.300781 164.039062 205.242188 163.8125 C 205.179688 163.585938 205.160156 163.355469 205.179688 163.125 C 205.199219 162.890625 205.257812 162.667969 205.351562 162.453125 C 205.480469 162.183594 205.660156 161.957031 205.890625 161.769531 C 206.125 161.582031 206.382812 161.453125 206.671875 161.382812 C 206.960938 161.3125 207.25 161.308594 207.542969 161.367188 C 207.832031 161.425781 208.097656 161.546875 208.335938 161.726562 L 218.484375 169.359375 L 218.527344 169.398438 L 219.996094 170.519531 C 220.421875 170.84375 220.890625 171.078125 221.40625 171.222656 C 221.917969 171.367188 222.441406 171.414062 222.972656 171.359375 C 223.503906 171.308594 224.003906 171.164062 224.480469 170.921875 C 224.957031 170.679688 225.371094 170.359375 225.726562 169.960938 C 226.4375 169.085938 226.726562 168.089844 226.597656 166.972656 Z M 226.597656 166.972656 " fill-opacity="1" fill-rule="nonzero"/><path fill="#ffffff" d="M 126.835938 122.910156 C 125.035156 126.570312 123.558594 130.355469 122.410156 134.265625 C 121.261719 138.179688 120.457031 142.160156 119.996094 146.210938 C 119.53125 150.261719 119.417969 154.324219 119.65625 158.394531 C 119.894531 162.464844 120.476562 166.484375 121.410156 170.453125 L 136.960938 174.265625 L 148.257812 128.152344 Z M 126.835938 122.910156 " fill-opacity="1" fill-rule="nonzero"/><g clip-path="url(#ce2b10dab3)"><path fill="#ffffff" d="M 253.648438 122.910156 L 232.234375 128.152344 L 243.53125 174.242188 L 259.089844 170.429688 C 260.328125 165.113281 260.949219 159.722656 260.945312 154.261719 C 260.957031 148.824219 260.34375 143.460938 259.113281 138.164062 C 257.878906 132.867188 256.058594 127.785156 253.648438 122.910156 Z M 253.648438 122.910156 " fill-opacity="1" fill-rule="nonzero"/></g><path fill="#ff5757" d="M 132.378906 169.5 C 131.96875 169.5 131.578125 169.421875 131.199219 169.265625 C 130.820312 169.109375 130.484375 168.886719 130.195312 168.597656 C 129.90625 168.304688 129.683594 167.972656 129.527344 167.59375 C 129.371094 167.214844 129.292969 166.820312 129.292969 166.410156 C 129.292969 166.003906 129.371094 165.609375 129.527344 165.230469 C 129.683594 164.851562 129.90625 164.515625 130.195312 164.226562 C 130.484375 163.9375 130.820312 163.714844 131.199219 163.558594 C 131.578125 163.402344 131.96875 163.324219 132.378906 163.324219 C 132.789062 163.324219 133.183594 163.402344 133.5625 163.558594 C 133.941406 163.714844 134.273438 163.9375 134.566406 164.226562 C 134.855469 164.515625 135.078125 164.851562 135.234375 165.230469 C 135.390625 165.609375 135.46875 166.003906 135.46875 166.410156 C 135.46875 166.820312 135.390625 167.214844 135.234375 167.59375 C 135.078125 167.972656 134.855469 168.304688 134.566406 168.597656 C 134.273438 168.886719 133.941406 169.109375 133.5625 169.265625 C 133.183594 169.421875 132.789062 169.5 132.378906 169.5 Z M 132.378906 169.5 " fill-opacity="1" fill-rule="nonzero"/><path fill="#ff5757" d="M 247.640625 169.5 C 247.234375 169.5 246.839844 169.421875 246.460938 169.265625 C 246.082031 169.109375 245.746094 168.886719 245.457031 168.597656 C 245.167969 168.304688 244.945312 167.972656 244.789062 167.59375 C 244.632812 167.214844 244.554688 166.820312 244.554688 166.410156 C 244.554688 166.003906 244.632812 165.609375 244.789062 165.230469 C 244.945312 164.851562 245.167969 164.515625 245.457031 164.226562 C 245.746094 163.9375 246.082031 163.714844 246.460938 163.558594 C 246.839844 163.402344 247.234375 163.324219 247.640625 163.324219 C 248.050781 163.324219 248.445312 163.402344 248.824219 163.558594 C 249.203125 163.714844 249.535156 163.9375 249.828125 164.226562 C 250.117188 164.515625 250.339844 164.851562 250.496094 165.230469 C 250.652344 165.609375 250.730469 166.003906 250.730469 166.410156 C 250.730469 166.820312 250.652344 167.214844 250.496094 167.59375 C 250.339844 167.972656 250.117188 168.304688 249.828125 168.597656 C 249.535156 168.886719 249.203125 169.109375 248.824219 169.265625 C 248.445312 169.421875 248.050781 169.5 247.640625 169.5 Z M 247.640625 169.5 " fill-opacity="1" fill-rule="nonzero"/><g fill="#ff5757" fill-opacity="1"><g transform="translate(55.02604, 271.459041)"><g><path d="M 1.5625 -35.234375 L 11.28125 -35.234375 C 13.789062 -35.234375 15.675781 -34.535156 16.9375 -33.140625 C 18.195312 -31.742188 18.84375 -29.679688 18.875 -26.953125 L 18.953125 -10.453125 C 18.972656 -6.984375 18.367188 -4.375 17.140625 -2.625 C 15.910156 -0.875 13.875 0 11.03125 0 L 1.5625 0 Z M 9.890625 -6.234375 C 11.171875 -6.234375 11.8125 -6.863281 11.8125 -8.125 L 11.8125 -26.296875 C 11.8125 -27.085938 11.75 -27.679688 11.625 -28.078125 C 11.5 -28.472656 11.269531 -28.738281 10.9375 -28.875 C 10.613281 -29.007812 10.113281 -29.078125 9.4375 -29.078125 L 8.65625 -29.078125 L 8.65625 -6.234375 Z M 9.890625 -6.234375 "/></g></g></g><g fill="#ff5757" fill-opacity="1"><g transform="translate(81.687078, 271.459041)"><g><path d="M 1.234375 0 L 1.234375 -35.234375 L 8.046875 -35.234375 L 8.046875 0 Z M 1.234375 0 "/></g></g></g><g fill="#ff5757" fill-opacity="1"><g transform="translate(97.437962, 271.459041)"><g><path d="M 9.390625 0.328125 C 7.773438 0.328125 6.3125 0.015625 5 -0.609375 C 3.6875 -1.242188 2.65625 -2.164062 1.90625 -3.375 C 1.15625 -4.59375 0.78125 -6.066406 0.78125 -7.796875 L 0.78125 -16.609375 L 7.71875 -16.609375 L 7.71875 -8.203125 C 7.71875 -7.578125 7.84375 -7.078125 8.09375 -6.703125 C 8.351562 -6.335938 8.757812 -6.15625 9.3125 -6.15625 C 9.832031 -6.15625 10.222656 -6.320312 10.484375 -6.65625 C 10.742188 -7 10.875 -7.488281 10.875 -8.125 L 10.875 -35.234375 L 17.96875 -35.234375 L 17.96875 -8.8125 C 17.96875 -6.988281 17.601562 -5.382812 16.875 -4 C 16.15625 -2.613281 15.144531 -1.546875 13.84375 -0.796875 C 12.539062 -0.046875 11.054688 0.328125 9.390625 0.328125 Z M 9.390625 0.328125 "/></g></g></g><g fill="#ff5757" fill-opacity="1"><g transform="translate(122.991581, 271.459041)"><g><path d="M 1.5625 0 L 1.5625 -35.234375 L 15.671875 -35.234375 L 15.671875 -28.421875 L 8.734375 -28.421875 L 8.734375 -21.578125 L 15.375 -21.578125 L 15.375 -14.9375 L 8.734375 -14.9375 L 8.734375 -6.84375 L 16.125 -6.84375 L 16.125 0 Z M 1.5625 0 "/></g></g></g><g fill="#ff5757" fill-opacity="1"><g transform="translate(146.330351, 271.459041)"><g><path d="M 1.5625 0 L 1.5625 -35.234375 L 8.609375 -35.234375 L 8.609375 -5.984375 L 15.875 -5.984375 L 15.875 0 Z M 1.5625 0 "/></g></g></g><g fill="#ff5757" fill-opacity="1"><g transform="translate(169.053887, 271.459041)"><g><path d="M 0.609375 0 L 4.015625 -35.234375 L 15.953125 -35.234375 L 19.3125 0 L 12.640625 0 L 12.140625 -5.703125 L 7.875 -5.703125 L 7.46875 0 Z M 8.40625 -11.328125 L 11.609375 -11.328125 L 10.046875 -29.25 L 9.71875 -29.25 Z M 8.40625 -11.328125 "/></g></g></g><g fill="#ff5757" fill-opacity="1"><g transform="translate(195.386798, 271.459041)"><g><path d="M 9.765625 0.328125 C 7.191406 0.328125 5.128906 -0.476562 3.578125 -2.09375 C 2.035156 -3.707031 1.265625 -5.921875 1.265625 -8.734375 L 1.265625 -24.984375 C 1.265625 -28.484375 1.960938 -31.117188 3.359375 -32.890625 C 4.753906 -34.671875 6.941406 -35.5625 9.921875 -35.5625 C 12.523438 -35.5625 14.617188 -34.847656 16.203125 -33.421875 C 17.785156 -32.003906 18.578125 -29.957031 18.578125 -27.28125 L 18.578125 -21.203125 L 11.5625 -21.203125 L 11.5625 -26.421875 C 11.5625 -27.429688 11.4375 -28.125 11.1875 -28.5 C 10.945312 -28.882812 10.523438 -29.078125 9.921875 -29.078125 C 9.296875 -29.078125 8.863281 -28.859375 8.625 -28.421875 C 8.394531 -27.984375 8.28125 -27.34375 8.28125 -26.5 L 8.28125 -8.8125 C 8.28125 -7.882812 8.414062 -7.207031 8.6875 -6.78125 C 8.96875 -6.363281 9.378906 -6.15625 9.921875 -6.15625 C 11.015625 -6.15625 11.5625 -7.039062 11.5625 -8.8125 L 11.5625 -15.171875 L 18.65625 -15.171875 L 18.65625 -8.53125 C 18.65625 -2.625 15.691406 0.328125 9.765625 0.328125 Z M 9.765625 0.328125 "/></g></g></g><g fill="#ff5757" fill-opacity="1"><g transform="translate(221.268537, 271.459041)"><g><path d="M 1.109375 0 L 1.109375 -5.984375 L 8.28125 -5.984375 L 8.28125 0 Z M 1.109375 0 "/></g></g></g><g fill="#ff5757" fill-opacity="1"><g transform="translate(237.101448, 271.459041)"><g><path d="M 9.765625 0.328125 C 7.191406 0.328125 5.128906 -0.476562 3.578125 -2.09375 C 2.035156 -3.707031 1.265625 -5.921875 1.265625 -8.734375 L 1.265625 -24.984375 C 1.265625 -28.484375 1.960938 -31.117188 3.359375 -32.890625 C 4.753906 -34.671875 6.941406 -35.5625 9.921875 -35.5625 C 12.523438 -35.5625 14.617188 -34.847656 16.203125 -33.421875 C 17.785156 -32.003906 18.578125 -29.957031 18.578125 -27.28125 L 18.578125 -21.203125 L 11.5625 -21.203125 L 11.5625 -26.421875 C 11.5625 -27.429688 11.4375 -28.125 11.1875 -28.5 C 10.945312 -28.882812 10.523438 -29.078125 9.921875 -29.078125 C 9.296875 -29.078125 8.863281 -28.859375 8.625 -28.421875 C 8.394531 -27.984375 8.28125 -27.34375 8.28125 -26.5 L 8.28125 -8.8125 C 8.28125 -7.882812 8.414062 -7.207031 8.6875 -6.78125 C 8.96875 -6.363281 9.378906 -6.15625 9.921875 -6.15625 C 11.015625 -6.15625 11.5625 -7.039062 11.5625 -8.8125 L 11.5625 -15.171875 L 18.65625 -15.171875 L 18.65625 -8.53125 C 18.65625 -2.625 15.691406 0.328125 9.765625 0.328125 Z M 9.765625 0.328125 "/></g></g></g><g fill="#ff5757" fill-opacity="1"><g transform="translate(262.983187, 271.459041)"><g><path d="M 9.96875 0.328125 C 7.125 0.328125 4.960938 -0.535156 3.484375 -2.265625 C 2.003906 -4.003906 1.265625 -6.445312 1.265625 -9.59375 L 1.265625 -26.375 C 1.265625 -29.40625 2.003906 -31.691406 3.484375 -33.234375 C 4.960938 -34.785156 7.125 -35.5625 9.96875 -35.5625 C 12.8125 -35.5625 14.96875 -34.785156 16.4375 -33.234375 C 17.914062 -31.691406 18.65625 -29.40625 18.65625 -26.375 L 18.65625 -9.59375 C 18.65625 -6.425781 17.914062 -3.976562 16.4375 -2.25 C 14.96875 -0.53125 12.8125 0.328125 9.96875 0.328125 Z M 9.96875 -6.15625 C 10.59375 -6.15625 11.015625 -6.425781 11.234375 -6.96875 C 11.453125 -7.519531 11.5625 -8.285156 11.5625 -9.265625 L 11.5625 -26.5 C 11.5625 -27.257812 11.457031 -27.878906 11.25 -28.359375 C 11.050781 -28.835938 10.640625 -29.078125 10.015625 -29.078125 C 8.835938 -29.078125 8.25 -28.191406 8.25 -26.421875 L 8.25 -9.234375 C 8.25 -8.222656 8.367188 -7.457031 8.609375 -6.9375 C 8.859375 -6.414062 9.3125 -6.15625 9.96875 -6.15625 Z M 9.96875 -6.15625 "/></g></g></g><g fill="#ff5757" fill-opacity="1"><g transform="translate(289.357125, 271.459041)"><g><path d="M 1.5625 0 L 1.5625 -35.234375 L 12.3125 -35.234375 L 15.265625 -13.734375 L 18.21875 -35.234375 L 29.046875 -35.234375 L 29.046875 0 L 22.59375 0 L 22.59375 -25.390625 L 18.546875 0 L 12.21875 0 L 7.921875 -25.390625 L 7.921875 0 Z M 1.5625 0 "/></g></g></g><g fill="#ff5757" fill-opacity="1"><g transform="translate(122.367184, 296.651493)"><g><path d="M 9.984375 -9.5625 C 9.984375 -8.269531 9.539062 -7.273438 8.65625 -6.578125 C 7.769531 -5.890625 6.519531 -5.546875 4.90625 -5.546875 L 2.84375 -5.546875 L 2.84375 0 L 1.90625 0 L 1.90625 -13.421875 L 5.1875 -13.421875 C 8.382812 -13.421875 9.984375 -12.132812 9.984375 -9.5625 Z M 2.84375 -6.34375 L 4.6875 -6.34375 C 6.195312 -6.34375 7.285156 -6.59375 7.953125 -7.09375 C 8.628906 -7.59375 8.96875 -8.40625 8.96875 -9.53125 C 8.96875 -10.5625 8.648438 -11.328125 8.015625 -11.828125 C 7.378906 -12.328125 6.394531 -12.578125 5.0625 -12.578125 L 2.84375 -12.578125 Z M 2.84375 -6.34375 "/></g></g></g><g fill="#ff5757" fill-opacity="1"><g transform="translate(133.355766, 296.651493)"><g><path d="M 9.921875 -5 C 9.921875 -3.375 9.523438 -2.101562 8.734375 -1.1875 C 7.941406 -0.269531 6.851562 0.1875 5.46875 0.1875 C 4.59375 0.1875 3.820312 -0.0195312 3.15625 -0.4375 C 2.488281 -0.863281 1.976562 -1.472656 1.625 -2.265625 C 1.269531 -3.054688 1.09375 -3.96875 1.09375 -5 C 1.09375 -6.625 1.484375 -7.890625 2.265625 -8.796875 C 3.054688 -9.710938 4.144531 -10.171875 5.53125 -10.171875 C 6.894531 -10.171875 7.96875 -9.707031 8.75 -8.78125 C 9.53125 -7.863281 9.921875 -6.601562 9.921875 -5 Z M 2.046875 -5 C 2.046875 -3.632812 2.347656 -2.566406 2.953125 -1.796875 C 3.554688 -1.023438 4.40625 -0.640625 5.5 -0.640625 C 6.601562 -0.640625 7.457031 -1.023438 8.0625 -1.796875 C 8.664062 -2.566406 8.96875 -3.632812 8.96875 -5 C 8.96875 -6.375 8.660156 -7.441406 8.046875 -8.203125 C 7.441406 -8.960938 6.585938 -9.34375 5.484375 -9.34375 C 4.390625 -9.34375 3.539062 -8.960938 2.9375 -8.203125 C 2.34375 -7.453125 2.046875 -6.382812 2.046875 -5 Z M 2.046875 -5 "/></g></g></g><g fill="#ff5757" fill-opacity="1"><g transform="translate(144.362693, 296.651493)"><g><path d="M 5.328125 -10.171875 C 6.046875 -10.171875 6.664062 -10.035156 7.1875 -9.765625 C 7.71875 -9.503906 8.191406 -9.054688 8.609375 -8.421875 L 8.671875 -8.421875 C 8.628906 -9.191406 8.609375 -9.945312 8.609375 -10.6875 L 8.609375 -14.28125 L 9.515625 -14.28125 L 9.515625 0 L 8.90625 0 L 8.6875 -1.53125 L 8.609375 -1.53125 C 7.847656 -0.382812 6.757812 0.1875 5.34375 0.1875 C 3.96875 0.1875 2.914062 -0.238281 2.1875 -1.09375 C 1.457031 -1.957031 1.09375 -3.207031 1.09375 -4.84375 C 1.09375 -6.570312 1.453125 -7.890625 2.171875 -8.796875 C 2.898438 -9.710938 3.953125 -10.171875 5.328125 -10.171875 Z M 5.328125 -9.34375 C 4.234375 -9.34375 3.410156 -8.957031 2.859375 -8.1875 C 2.316406 -7.425781 2.046875 -6.316406 2.046875 -4.859375 C 2.046875 -2.035156 3.144531 -0.625 5.34375 -0.625 C 6.46875 -0.625 7.289062 -0.953125 7.8125 -1.609375 C 8.34375 -2.265625 8.609375 -3.34375 8.609375 -4.84375 L 8.609375 -5 C 8.609375 -6.539062 8.347656 -7.648438 7.828125 -8.328125 C 7.316406 -9.003906 6.484375 -9.34375 5.328125 -9.34375 Z M 5.328125 -9.34375 "/></g></g></g><g fill="#ff5757" fill-opacity="1"><g transform="translate(155.543901, 296.651493)"><g><path d="M 2.578125 0 L 1.671875 0 L 1.671875 -9.984375 L 2.578125 -9.984375 Z M 1.546875 -12.75 C 1.546875 -13.332031 1.738281 -13.625 2.125 -13.625 C 2.3125 -13.625 2.457031 -13.546875 2.5625 -13.390625 C 2.664062 -13.242188 2.71875 -13.03125 2.71875 -12.75 C 2.71875 -12.46875 2.664062 -12.25 2.5625 -12.09375 C 2.457031 -11.9375 2.3125 -11.859375 2.125 -11.859375 C 1.738281 -11.859375 1.546875 -12.15625 1.546875 -12.75 Z M 1.546875 -12.75 "/></g></g></g><g fill="#ff5757" fill-opacity="1"><g transform="translate(159.790746, 296.651493)"><g><path d="M 0.34375 4.515625 C -0.144531 4.515625 -0.5625 4.4375 -0.90625 4.28125 L -0.90625 3.5 C -0.476562 3.625 -0.0820312 3.6875 0.28125 3.6875 C 1.207031 3.6875 1.671875 3.144531 1.671875 2.0625 L 1.671875 -9.984375 L 2.578125 -9.984375 L 2.578125 1.9375 C 2.578125 2.757812 2.378906 3.394531 1.984375 3.84375 C 1.597656 4.289062 1.050781 4.515625 0.34375 4.515625 Z M 1.546875 -12.75 C 1.546875 -13.332031 1.738281 -13.625 2.125 -13.625 C 2.3125 -13.625 2.457031 -13.546875 2.5625 -13.390625 C 2.664062 -13.242188 2.71875 -13.03125 2.71875 -12.75 C 2.71875 -12.46875 2.664062 -12.25 2.5625 -12.09375 C 2.457031 -11.9375 2.3125 -11.859375 2.125 -11.859375 C 1.738281 -11.859375 1.546875 -12.15625 1.546875 -12.75 Z M 1.546875 -12.75 "/></g></g></g><g fill="#ff5757" fill-opacity="1"><g transform="translate(164.037591, 296.651493)"><g><path d="M 5.703125 0.1875 C 4.253906 0.1875 3.125 -0.257812 2.3125 -1.15625 C 1.5 -2.050781 1.09375 -3.300781 1.09375 -4.90625 C 1.09375 -6.5 1.484375 -7.773438 2.265625 -8.734375 C 3.046875 -9.691406 4.101562 -10.171875 5.4375 -10.171875 C 6.613281 -10.171875 7.539062 -9.757812 8.21875 -8.9375 C 8.894531 -8.113281 9.234375 -7 9.234375 -5.59375 L 9.234375 -4.859375 L 2.046875 -4.859375 C 2.054688 -3.492188 2.375 -2.445312 3 -1.71875 C 3.632812 -1 4.535156 -0.640625 5.703125 -0.640625 C 6.265625 -0.640625 6.757812 -0.675781 7.1875 -0.75 C 7.625 -0.832031 8.175781 -1.007812 8.84375 -1.28125 L 8.84375 -0.453125 C 8.28125 -0.203125 7.757812 -0.0351562 7.28125 0.046875 C 6.800781 0.140625 6.273438 0.1875 5.703125 0.1875 Z M 5.4375 -9.359375 C 4.476562 -9.359375 3.707031 -9.039062 3.125 -8.40625 C 2.539062 -7.78125 2.203125 -6.867188 2.109375 -5.671875 L 8.265625 -5.671875 C 8.265625 -6.828125 8.015625 -7.726562 7.515625 -8.375 C 7.015625 -9.03125 6.320312 -9.359375 5.4375 -9.359375 Z M 5.4375 -9.359375 "/></g></g></g><g fill="#ff5757" fill-opacity="1"><g transform="translate(174.347413, 296.651493)"><g><path d="M 2.578125 0 L 1.671875 0 L 1.671875 -14.28125 L 2.578125 -14.28125 Z M 2.578125 0 "/></g></g></g><g fill="#ff5757" fill-opacity="1"><g transform="translate(178.594258, 296.651493)"><g><path d="M 2.578125 0 L 1.671875 0 L 1.671875 -9.984375 L 2.578125 -9.984375 Z M 1.546875 -12.75 C 1.546875 -13.332031 1.738281 -13.625 2.125 -13.625 C 2.3125 -13.625 2.457031 -13.546875 2.5625 -13.390625 C 2.664062 -13.242188 2.71875 -13.03125 2.71875 -12.75 C 2.71875 -12.46875 2.664062 -12.25 2.5625 -12.09375 C 2.457031 -11.9375 2.3125 -11.859375 2.125 -11.859375 C 1.738281 -11.859375 1.546875 -12.15625 1.546875 -12.75 Z M 1.546875 -12.75 "/></g></g></g><g fill="#ff5757" fill-opacity="1"><g transform="translate(182.841103, 296.651493)"><g/></g></g><g fill="#ff5757" fill-opacity="1"><g transform="translate(187.72084, 296.651493)"><g><path d="M 2.578125 0 L 1.671875 0 L 1.671875 -9.984375 L 2.578125 -9.984375 Z M 1.546875 -12.75 C 1.546875 -13.332031 1.738281 -13.625 2.125 -13.625 C 2.3125 -13.625 2.457031 -13.546875 2.5625 -13.390625 C 2.664062 -13.242188 2.71875 -13.03125 2.71875 -12.75 C 2.71875 -12.46875 2.664062 -12.25 2.5625 -12.09375 C 2.457031 -11.9375 2.3125 -11.859375 2.125 -11.859375 C 1.738281 -11.859375 1.546875 -12.15625 1.546875 -12.75 Z M 1.546875 -12.75 "/></g></g></g><g fill="#ff5757" fill-opacity="1"><g transform="translate(191.967685, 296.651493)"><g/></g></g><g fill="#ff5757" fill-opacity="1"><g transform="translate(196.847423, 296.651493)"><g><path d="M 7.875 0 L 0.75 0 L 0.75 -0.578125 L 6.671875 -9.171875 L 1.1875 -9.171875 L 1.1875 -9.984375 L 7.859375 -9.984375 L 7.859375 -9.40625 L 1.90625 -0.8125 L 7.875 -0.8125 Z M 7.875 0 "/></g></g></g><g fill="#ff5757" fill-opacity="1"><g transform="translate(205.506205, 296.651493)"><g><path d="M 7.734375 0 L 7.5 -1.578125 L 7.421875 -1.578125 C 6.921875 -0.929688 6.40625 -0.472656 5.875 -0.203125 C 5.34375 0.0546875 4.71875 0.1875 4 0.1875 C 3.019531 0.1875 2.257812 -0.0625 1.71875 -0.5625 C 1.175781 -1.070312 0.90625 -1.769531 0.90625 -2.65625 C 0.90625 -3.625 1.304688 -4.378906 2.109375 -4.921875 C 2.921875 -5.460938 4.097656 -5.742188 5.640625 -5.765625 L 7.53125 -5.828125 L 7.53125 -6.484375 C 7.53125 -7.429688 7.335938 -8.144531 6.953125 -8.625 C 6.566406 -9.113281 5.945312 -9.359375 5.09375 -9.359375 C 4.164062 -9.359375 3.207031 -9.101562 2.21875 -8.59375 L 1.875 -9.375 C 2.976562 -9.894531 4.0625 -10.15625 5.125 -10.15625 C 6.226562 -10.15625 7.046875 -9.867188 7.578125 -9.296875 C 8.117188 -8.722656 8.390625 -7.835938 8.390625 -6.640625 L 8.390625 0 Z M 4.0625 -0.640625 C 5.125 -0.640625 5.960938 -0.941406 6.578125 -1.546875 C 7.191406 -2.160156 7.5 -3.007812 7.5 -4.09375 L 7.5 -5.078125 L 5.75 -5 C 4.351562 -4.9375 3.351562 -4.71875 2.75 -4.34375 C 2.15625 -3.976562 1.859375 -3.398438 1.859375 -2.609375 C 1.859375 -1.984375 2.050781 -1.5 2.4375 -1.15625 C 2.820312 -0.8125 3.363281 -0.640625 4.0625 -0.640625 Z M 4.0625 -0.640625 "/></g></g></g><g fill="#ff5757" fill-opacity="1"><g transform="translate(215.458307, 296.651493)"><g><path d="M 5.59375 -10.171875 C 6.019531 -10.171875 6.472656 -10.128906 6.953125 -10.046875 L 6.78125 -9.171875 C 6.363281 -9.273438 5.929688 -9.328125 5.484375 -9.328125 C 4.640625 -9.328125 3.941406 -8.960938 3.390625 -8.234375 C 2.847656 -7.515625 2.578125 -6.601562 2.578125 -5.5 L 2.578125 0 L 1.671875 0 L 1.671875 -9.984375 L 2.4375 -9.984375 L 2.53125 -8.171875 L 2.59375 -8.171875 C 3.007812 -8.910156 3.445312 -9.425781 3.90625 -9.71875 C 4.375 -10.019531 4.9375 -10.171875 5.59375 -10.171875 Z M 5.59375 -10.171875 "/></g></g></g><g fill="#ff5757" fill-opacity="1"><g transform="translate(222.768746, 296.651493)"><g><path d="M 7.734375 0 L 7.5 -1.578125 L 7.421875 -1.578125 C 6.921875 -0.929688 6.40625 -0.472656 5.875 -0.203125 C 5.34375 0.0546875 4.71875 0.1875 4 0.1875 C 3.019531 0.1875 2.257812 -0.0625 1.71875 -0.5625 C 1.175781 -1.070312 0.90625 -1.769531 0.90625 -2.65625 C 0.90625 -3.625 1.304688 -4.378906 2.109375 -4.921875 C 2.921875 -5.460938 4.097656 -5.742188 5.640625 -5.765625 L 7.53125 -5.828125 L 7.53125 -6.484375 C 7.53125 -7.429688 7.335938 -8.144531 6.953125 -8.625 C 6.566406 -9.113281 5.945312 -9.359375 5.09375 -9.359375 C 4.164062 -9.359375 3.207031 -9.101562 2.21875 -8.59375 L 1.875 -9.375 C 2.976562 -9.894531 4.0625 -10.15625 5.125 -10.15625 C 6.226562 -10.15625 7.046875 -9.867188 7.578125 -9.296875 C 8.117188 -8.722656 8.390625 -7.835938 8.390625 -6.640625 L 8.390625 0 Z M 4.0625 -0.640625 C 5.125 -0.640625 5.960938 -0.941406 6.578125 -1.546875 C 7.191406 -2.160156 7.5 -3.007812 7.5 -4.09375 L 7.5 -5.078125 L 5.75 -5 C 4.351562 -4.9375 3.351562 -4.71875 2.75 -4.34375 C 2.15625 -3.976562 1.859375 -3.398438 1.859375 -2.609375 C 1.859375 -1.984375 2.050781 -1.5 2.4375 -1.15625 C 2.820312 -0.8125 3.363281 -0.640625 4.0625 -0.640625 Z M 4.0625 -0.640625 "/></g></g></g><g fill="#ff5757" fill-opacity="1"><g transform="translate(232.720848, 296.651493)"><g><path d="M 5.328125 -10.171875 C 6.046875 -10.171875 6.664062 -10.035156 7.1875 -9.765625 C 7.71875 -9.503906 8.191406 -9.054688 8.609375 -8.421875 L 8.671875 -8.421875 C 8.628906 -9.191406 8.609375 -9.945312 8.609375 -10.6875 L 8.609375 -14.28125 L 9.515625 -14.28125 L 9.515625 0 L 8.90625 0 L 8.6875 -1.53125 L 8.609375 -1.53125 C 7.847656 -0.382812 6.757812 0.1875 5.34375 0.1875 C 3.96875 0.1875 2.914062 -0.238281 2.1875 -1.09375 C 1.457031 -1.957031 1.09375 -3.207031 1.09375 -4.84375 C 1.09375 -6.570312 1.453125 -7.890625 2.171875 -8.796875 C 2.898438 -9.710938 3.953125 -10.171875 5.328125 -10.171875 Z M 5.328125 -9.34375 C 4.234375 -9.34375 3.410156 -8.957031 2.859375 -8.1875 C 2.316406 -7.425781 2.046875 -6.316406 2.046875 -4.859375 C 2.046875 -2.035156 3.144531 -0.625 5.34375 -0.625 C 6.46875 -0.625 7.289062 -0.953125 7.8125 -1.609375 C 8.34375 -2.265625 8.609375 -3.34375 8.609375 -4.84375 L 8.609375 -5 C 8.609375 -6.539062 8.347656 -7.648438 7.828125 -8.328125 C 7.316406 -9.003906 6.484375 -9.34375 5.328125 -9.34375 Z M 5.328125 -9.34375 "/></g></g></g><g fill="#ff5757" fill-opacity="1"><g transform="translate(243.902057, 296.651493)"><g><path d="M 2.578125 0 L 1.671875 0 L 1.671875 -9.984375 L 2.578125 -9.984375 Z M 1.546875 -12.75 C 1.546875 -13.332031 1.738281 -13.625 2.125 -13.625 C 2.3125 -13.625 2.457031 -13.546875 2.5625 -13.390625 C 2.664062 -13.242188 2.71875 -13.03125 2.71875 -12.75 C 2.71875 -12.46875 2.664062 -12.25 2.5625 -12.09375 C 2.457031 -11.9375 2.3125 -11.859375 2.125 -11.859375 C 1.738281 -11.859375 1.546875 -12.15625 1.546875 -12.75 Z M 1.546875 -12.75 "/></g></g></g><g fill="#ff5757" fill-opacity="1"><g transform="translate(248.148902, 296.651493)"><g><path d="M 1.484375 -0.71875 C 1.484375 -1.3125 1.726562 -1.609375 2.21875 -1.609375 C 2.71875 -1.609375 2.96875 -1.3125 2.96875 -0.71875 C 2.96875 -0.113281 2.71875 0.1875 2.21875 0.1875 C 1.726562 0.1875 1.484375 -0.113281 1.484375 -0.71875 Z M 1.484375 -0.71875 "/></g></g></g></svg>